<?xml version="1.0" standalone="no"?>
<svg viewBox="0 0 200 200" xmlns="http://www.w3.org/2000/svg">
  <path fill="#C41D7F" d="M44.9,-75.4C56.8,-71,63.9,-56,67.9,-41.7C71.9,-27.3,72.7,-13.7,71,-1C69.4,11.7,65.2,23.5,57.6,31.6C50.1,39.7,39.1,44.2,28.9,52C18.7,59.9,9.4,71.3,-2,74.7C-13.4,78.2,-26.7,73.8,-35.3,65C-43.9,56.2,-47.8,43,-55.3,31.5C-62.7,19.9,-73.9,9.9,-79.5,-3.3C-85.2,-16.5,-85.4,-33,-77.4,-43.6C-69.3,-54.2,-53,-58.9,-38.8,-61.9C-24.5,-64.8,-12.2,-66.1,2.2,-69.8C16.6,-73.6,33.1,-79.8,44.9,-75.4Z" transform="translate(100 100)" />
</svg>
